<svg width="1280" height="720" xmlns="http://www.w3.org/2000/svg" xmlns:xlink="http://www.w3.org/1999/xlink" overflow="hidden"><defs><clipPath id="clip0"><rect x="0" y="0" width="1280" height="720"/></clipPath><linearGradient x1="758" y1="94.5001" x2="758" y2="294.5" gradientUnits="userSpaceOnUse" spreadMethod="reflect" id="fill1"><stop offset="0" stop-color="#FFDD9C"/><stop offset="0.5" stop-color="#FFD78E"/><stop offset="1" stop-color="#FFD479"/></linearGradient><linearGradient x1="767.5" y1="424.5" x2="767.5" y2="655.5" gradientUnits="userSpaceOnUse" spreadMethod="reflect" id="fill2"><stop offset="0" stop-color="#FFDD9C"/><stop offset="0.5" stop-color="#FFD78E"/><stop offset="1" stop-color="#FFD479"/></linearGradient><linearGradient x1="403" y1="94.5001" x2="403" y2="294.5" gradientUnits="userSpaceOnUse" spreadMethod="reflect" id="fill3"><stop offset="0" stop-color="#FFDD9C"/><stop offset="0.5" stop-color="#FFD78E"/><stop offset="1" stop-color="#FFD479"/></linearGradient></defs><g clip-path="url(#clip0)"><rect x="0" y="0" width="1280" height="720" fill="#FFFFFF"/><text fill="#898989" font-family="Calibri,Calibri_MSFontService,sans-serif" font-weight="400" font-size="5" transform="translate(670.593 688)">1</text><path d="M642.5 127.834C642.5 109.424 657.424 94.5001 675.834 94.5001L840.166 94.5001C858.576 94.5001 873.5 109.424 873.5 127.834L873.5 261.166C873.5 279.576 858.576 294.5 840.166 294.5L675.834 294.5C657.424 294.5 642.5 279.576 642.5 261.166Z" stroke="#FFC000" stroke-width="0.666667" stroke-miterlimit="8" fill="url(#fill1)" fill-rule="evenodd"/><text font-family="Calibri,Calibri_MSFontService,sans-serif" font-weight="400" font-size="20" transform="translate(688.383 128)">Forms as a Cloud <tspan font-size="20" x="2.71997" y="24">Service </tspan><tspan font-size="20" x="65.74" y="24">Sandbox</tspan></text><path d="M665.5 173.5C665.5 164.664 672.664 157.5 681.5 157.5L833.5 157.5C842.336 157.5 849.5 164.664 849.5 173.5L849.5 237.5C849.5 246.336 842.336 253.5 833.5 253.5L681.5 253.5C672.664 253.5 665.5 246.336 665.5 237.5Z" stroke="#FFC000" stroke-width="0.666667" stroke-miterlimit="8" fill="#ED7D31" fill-rule="evenodd"/><text font-family="Calibri,Calibri_MSFontService,sans-serif" font-weight="700" font-size="13" transform="translate(704.746 178)">Adaptive <tspan font-size="13" x="52.8333" y="0">Forms </tspan><tspan font-size="13" x="90" y="0">V2 </tspan><tspan font-size="13" x="25.1667" y="16">Container</tspan></text><path d="M678.5 271C678.5 269.067 680.067 267.5 682 267.5L853 267.5C854.933 267.5 856.5 269.067 856.5 271L856.5 285C856.5 286.933 854.933 288.5 853 288.5L682 288.5C680.067 288.5 678.5 286.933 678.5 285Z" stroke="#2F528F" stroke-width="1.33333" stroke-miterlimit="8" fill="#4472C4" fill-rule="evenodd"/><text fill="#FFFFFF" font-family="Calibri,Calibri_MSFontService,sans-serif" font-weight="400" font-size="13" transform="translate(706.724 281)">Fetch and Submit APIs</text><path d="M649.5 463.001C649.5 441.737 666.737 424.5 688.001 424.5L846.999 424.5C868.263 424.5 885.5 441.737 885.5 463.001L885.5 616.999C885.5 638.263 868.263 655.5 846.999 655.5L688.001 655.5C666.737 655.5 649.5 638.263 649.5 616.999Z" stroke="#FFC000" stroke-width="0.666667" stroke-miterlimit="8" fill="url(#fill2)" fill-rule="evenodd"/><text font-family="Calibri,Calibri_MSFontService,sans-serif" font-weight="400" font-size="20" transform="translate(684.404 459)">Front End React App</text><path d="M659.5 578.167C659.5 571.171 665.171 565.5 672.167 565.5L749.833 565.5C756.829 565.5 762.5 571.171 762.5 578.167L762.5 628.833C762.5 635.829 756.829 641.5 749.833 641.5L672.167 641.5C665.171 641.5 659.5 635.829 659.5 628.833Z" stroke="#FFC000" stroke-width="0.666667" stroke-miterlimit="8" fill="#ED7D31" fill-rule="evenodd"/><text font-family="Calibri,Calibri_MSFontService,sans-serif" font-weight="400" font-size="16" transform="translate(678.301 589)">JavaScript <tspan font-size="16" x="4.53998" y="19">Libraries </tspan><tspan font-size="16" x="6.00665" y="38">for Web</tspan></text><path d="M780.5 576.167C780.5 569.171 786.171 563.5 793.167 563.5L859.833 563.5C866.829 563.5 872.5 569.171 872.5 576.167L872.5 626.833C872.5 633.829 866.829 639.5 859.833 639.5L793.167 639.5C786.171 639.5 780.5 633.829 780.5 626.833Z" stroke="#FFC000" stroke-width="0.666667" stroke-miterlimit="8" fill="#ED7D31" fill-rule="evenodd"/><text font-family="Calibri,Calibri_MSFontService,sans-serif" font-weight="400" font-size="16" transform="translate(797.148 578)">Adaptive <tspan font-size="16" x="8.66663" y="19">Forms </tspan><tspan font-size="16" x="10.6933" y="38">React </tspan><tspan font-size="16" x="-1.11334" y="58">Renderer</tspan></text><path d="M710.833 299.5 710.833 414.433 710.167 414.433 710.167 299.5ZM714.5 413.1 710.5 421.1 706.5 413.1Z"/><path d="M0.333333-2.75263e-07 0.333433 120.469-0.333234 120.469-0.333333 2.75263e-07ZM4.0001 119.135 0.000104987 127.135-3.9999 119.135Z" transform="matrix(1 0 0 -1 827.5 421.635)"/><path d="M643.5 355C643.5 353.067 645.067 351.5 647 351.5L759 351.5C760.933 351.5 762.5 353.067 762.5 355L762.5 369C762.5 370.933 760.933 372.5 759 372.5L647 372.5C645.067 372.5 643.5 370.933 643.5 369Z" stroke="#2F528F" stroke-width="1.33333" stroke-miterlimit="8" fill="#4472C4" fill-rule="evenodd"/><text fill="#FFFFFF" font-family="Calibri,Calibri_MSFontService,sans-serif" font-weight="400" font-size="13" transform="translate(671.774 365)">Fetch Form</text><path d="M780.5 352.667C780.5 350.366 782.366 348.5 784.667 348.5L873.333 348.5C875.635 348.5 877.5 350.366 877.5 352.667L877.5 369.333C877.5 371.635 875.635 373.5 873.333 373.5L784.667 373.5C782.366 373.5 780.5 371.635 780.5 369.333Z" stroke="#2F528F" stroke-width="1.33333" stroke-miterlimit="8" fill="#4472C4" fill-rule="evenodd"/><text fill="#FFFFFF" font-family="Calibri,Calibri_MSFontService,sans-serif" font-weight="400" font-size="13" transform="translate(793.689 364)">Submit Form</text><path d="M287.5 127.834C287.5 109.424 302.424 94.5001 320.834 94.5001L485.166 94.5001C503.576 94.5001 518.5 109.424 518.5 127.834L518.5 261.166C518.5 279.576 503.576 294.5 485.166 294.5L320.834 294.5C302.424 294.5 287.5 279.576 287.5 261.166Z" stroke="#FFC000" stroke-width="0.666667" stroke-miterlimit="8" fill="url(#fill3)" fill-rule="evenodd"/><text font-family="Calibri,Calibri_MSFontService,sans-serif" font-weight="400" font-size="20" transform="translate(310.742 128)">Visual Studio Code IDE</text><path d="M378.5 172.334C378.5 161.38 387.38 152.5 398.334 152.5L486.666 152.5C497.62 152.5 506.5 161.38 506.5 172.334L506.5 251.666C506.5 262.62 497.62 271.5 486.666 271.5L398.334 271.5C387.38 271.5 378.5 262.62 378.5 251.666Z" stroke="#FFC000" stroke-width="0.666667" stroke-miterlimit="8" fill="#ED7D31" fill-rule="evenodd"/><text font-family="Calibri,Calibri_MSFontService,sans-serif" font-weight="700" font-size="16" transform="translate(407.684 178)">Archetype <tspan font-size="16" x="10.5133" y="19">Project</tspan></text><path d="M296.5 193.667C296.5 188.604 300.604 184.5 305.667 184.5L363.333 184.5C368.396 184.5 372.5 188.604 372.5 193.667L372.5 230.333C372.5 235.396 368.396 239.5 363.333 239.5L305.667 239.5C300.604 239.5 296.5 235.396 296.5 230.333Z" stroke="#FFC000" stroke-width="0.666667" stroke-miterlimit="8" fill="#ED7D31" fill-rule="evenodd"/><text font-family="Calibri,Calibri_MSFontService,sans-serif" font-weight="400" font-size="13" transform="translate(309.823 200)">Headless <tspan font-size="13" x="7.33331" y="16">Forms </tspan><tspan font-size="13" x="7.58667" y="32">Plugin</tspan></text><path d="M519.5 208.167 635.478 208.167 635.478 208.833 519.5 208.833ZM634.145 204.5 642.145 208.5 634.145 212.5Z"/><path d="M531.5 197.833C531.5 194.888 533.888 192.5 536.833 192.5L624.167 192.5C627.112 192.5 629.5 194.888 629.5 197.833L629.5 219.167C629.5 222.112 627.112 224.5 624.167 224.5L536.833 224.5C533.888 224.5 531.5 222.112 531.5 219.167Z" stroke="#2F528F" stroke-width="1.33333" stroke-miterlimit="8" fill="#4472C4" fill-rule="evenodd"/><text fill="#FFFFFF" font-family="Calibri,Calibri_MSFontService,sans-serif" font-weight="400" font-size="13" transform="translate(554.869 204)">Build and <tspan font-size="13" x="6.41333" y="16">Deploy</tspan></text><path d="M383.5 210.5C383.5 206.634 386.634 203.5 390.5 203.5L432.5 203.5C436.366 203.5 439.5 206.634 439.5 210.5L439.5 238.5C439.5 242.366 436.366 245.5 432.5 245.5L390.5 245.5C386.634 245.5 383.5 242.366 383.5 238.5Z" stroke="#FFC000" stroke-width="0.666667" stroke-miterlimit="8" fill="#BF9000" fill-rule="evenodd"/><text font-family="Calibri,Calibri_MSFontService,sans-serif" font-weight="700" font-size="11" transform="translate(399.791 221)">Form <tspan font-size="11" x="0.166656" y="13">JSON</tspan></text><path d="M443.5 211.334C443.5 207.559 446.56 204.5 450.334 204.5L496.667 204.5C500.441 204.5 503.5 207.559 503.5 211.334L503.5 238.667C503.5 242.441 500.441 245.5 496.667 245.5L450.334 245.5C446.56 245.5 443.5 242.441 443.5 238.667Z" stroke="#FFC000" stroke-width="0.666667" stroke-miterlimit="8" fill="#BF9000" fill-rule="evenodd"/><text font-family="Calibri,Calibri_MSFontService,sans-serif" font-weight="700" font-size="11" transform="translate(456.483 222)">Custom <tspan font-size="11" x="5.66666" y="13">Code</tspan></text><path d="M721.5 209.5C721.5 205.082 725.082 201.5 729.5 201.5L788.5 201.5C792.918 201.5 796.5 205.082 796.5 209.5L796.5 241.5C796.5 245.918 792.918 249.5 788.5 249.5L729.5 249.5C725.082 249.5 721.5 245.918 721.5 241.5Z" stroke="#FFC000" stroke-width="0.666667" stroke-miterlimit="8" fill="#BF9000" fill-rule="evenodd"/><text font-family="Calibri,Calibri_MSFontService,sans-serif" font-weight="400" font-size="13" transform="translate(744.421 221)">Form <tspan font-size="13" x="0.246643" y="16">JSON</tspan></text><path d="M717.5 495.167C717.5 489.828 721.828 485.5 727.167 485.5L817.833 485.5C823.172 485.5 827.5 489.828 827.5 495.167L827.5 533.833C827.5 539.172 823.172 543.5 817.833 543.5L727.167 543.5C721.828 543.5 717.5 539.172 717.5 533.833Z" stroke="#FFC000" stroke-width="0.666667" stroke-miterlimit="8" fill="#BF9000" fill-rule="evenodd"/><text font-family="Calibri,Calibri_MSFontService,sans-serif" font-weight="400" font-size="16" transform="translate(740.233 509)">Rendered <tspan font-size="16" x="14.36" y="19">Form</tspan></text><path d="M387.5 346.5C387.5 342.634 390.634 339.5 394.5 339.5L436.5 339.5C440.366 339.5 443.5 342.634 443.5 346.5L443.5 374.5C443.5 378.366 440.366 381.5 436.5 381.5L394.5 381.5C390.634 381.5 387.5 378.366 387.5 374.5Z" stroke="#FFC000" stroke-width="0.666667" stroke-miterlimit="8" fill="#BF9000" fill-rule="evenodd"/><text font-family="Calibri,Calibri_MSFontService,sans-serif" font-weight="400" font-size="13" transform="translate(400.914 356)">Form <tspan font-size="13" x="0.253326" y="16">JSON</tspan></text><path d="M0-0.333333 114.956-0.333333 114.956 105.715 114.623 105.381 184.177 105.381 184.177 106.048 114.289 106.048 114.289 0 114.623 0.333333 0 0.333333ZM182.844 101.715 190.844 105.715 182.844 109.715Z" transform="matrix(1 0 0 -1 443.5 360.215)"/><path d="M518.5 299.833C518.5 296.888 520.888 294.5 523.833 294.5L611.167 294.5C614.112 294.5 616.5 296.888 616.5 299.833L616.5 321.167C616.5 324.112 614.112 326.5 611.167 326.5L523.833 326.5C520.888 326.5 518.5 324.112 518.5 321.167Z" stroke="#2F528F" stroke-width="1.33333" stroke-miterlimit="8" fill="#4472C4" fill-rule="evenodd"/><text fill="#FFFFFF" font-family="Calibri,Calibri_MSFontService,sans-serif" font-weight="400" font-size="13" transform="translate(547.419 306)">Upload <tspan font-size="13" x="-1.41333" y="16">Directly</tspan></text></g></svg>