<svg xmlns="http://www.w3.org/2000/svg" width="1.7em" height="1.7em" fill="" viewBox="0 0 21 20" alt="Thumbs Up"><title>Thumbs Up</title><path fill="rgba(255, 255, 255, 1)" fill-rule="evenodd" d="M5.5 17.755c.542.407 1.199.671 1.918.735l6.311.561a3.75 3.75 0 003.803-2.315l2.252-5.505c.875-2.138-.698-4.48-3.008-4.48H14.5l-.085-.001h-.797a.183.183 0 01-.1-.026c-.014-.009-.017-.015-.018-.021A5.857 5.857 0 0113.25 5V3A2.75 2.75 0 0010.5.25H9a.75.75 0 00-.75.75v3.882a3.187 3.187 0 01-2.457 3.102c-.1.024-.199.054-.293.09V8a.75.75 0 00-.75-.75h-4A.75.75 0 000 8v10c0 .414.336.75.75.75h4A.75.75 0 005.5 18v-.245z" clip-rule="evenodd"></path><path fill="rgba(11, 110, 208, 1)" fill-rule="evenodd" d="M5.5 17.755c.542.407 1.199.671 1.918.735l6.311.561a3.75 3.75 0 003.803-2.315l2.252-5.505c.875-2.138-.698-4.48-3.008-4.48H14.5l-.085-.001h-.797a.183.183 0 01-.1-.026c-.014-.009-.017-.015-.018-.021A5.857 5.857 0 0113.25 5V3A2.75 2.75 0 0010.5.25H9a.75.75 0 00-.75.75v3.882a3.187 3.187 0 01-2.457 3.102c-.1.024-.199.054-.293.09V8a.75.75 0 00-.75-.75h-4A.75.75 0 000 8v10c0 .414.336.75.75.75h4A.75.75 0 005.5 18v-.245zM9.75 1.75v3.132a4.687 4.687 0 01-3.614 4.562.825.825 0 00-.636.803v4.508a2.25 2.25 0 002.05 2.241l2.991.266a2.25 2.25 0 01-.86-2.612l2.141-6.065c.12-.341.303-.647.533-.907a1.522 1.522 0 01-.29-.535A7.355 7.355 0 0111.75 5V3c0-.69-.56-1.25-1.25-1.25h-.75zM4 8.75H1.5v8.5H4v-8.5zm9.862 8.807l-.275-.024a.749.749 0 00-.17-.157l-2.03-1.353a.75.75 0 01-.291-.873l2.14-6.066a1.25 1.25 0 011.16-.834h2.38a1.75 1.75 0 011.62 2.413l-2.252 5.505a2.25 2.25 0 01-2.282 1.389z" clip-rule="evenodd"></path></svg>