<svg xmlns="http://www.w3.org/2000/svg" fill="" width="1.7em" height="1.7em" viewBox="0 0 21 20" alt="Thumbs Down"><title>Thumbs Down</title><path fill="rgba(255, 255, 255, 1)" fill-rule="evenodd" d="M15.5 2.245a3.736 3.736 0 00-1.918-.735L7.271.949a3.75 3.75 0 00-3.803 2.315L1.216 8.77c-.875 2.138.698 4.48 3.008 4.48H6.5l.085.001h.797c.049 0 .083.014.1.025.014.01.016.016.018.022.118.385.25.977.25 1.703v2a2.75 2.75 0 002.75 2.75H12a.75.75 0 00.75-.75v-3.882a3.187 3.187 0 012.457-3.102c.1-.024.199-.054.293-.09V12c0 .414.336.75.75.75h4A.75.75 0 0021 12V2a.75.75 0 00-.75-.75h-4a.75.75 0 00-.75.75v.245z" clip-rule="evenodd"></path><path fill="rgba(11, 110, 208, 1)" fill-rule="evenodd" d="M15.207 12.015c.1-.023.198-.053.293-.089V12c0 .414.336.75.75.75h4A.75.75 0 0021 12V2a.75.75 0 00-.75-.75h-4a.75.75 0 00-.75.75v.126a3.737 3.737 0 00-1.755-.717L7.433.567a3.75 3.75 0 00-3.988 2.35L1.136 8.816c-.834 2.132.738 4.435 3.027 4.435h3.38c.092.284.207.823.207 1.75v2a2.75 2.75 0 002.75 2.75H12a.75.75 0 00.75-.75v-3.882a3.187 3.187 0 012.457-3.103zM11.25 18.25v-3.132a4.687 4.687 0 013.614-4.563.825.825 0 00.636-.803V5.126a2.25 2.25 0 00-1.953-2.23l-6.314-.842a2.25 2.25 0 00-2.392 1.41L2.533 9.362a1.75 1.75 0 001.63 2.388h3.423c.053 0 .108.002.164.008v-.064a1.25 1.25 0 00-1.044-1.233l-1.33-.222a.75.75 0 01.247-1.48l1.33.222a2.75 2.75 0 012.297 2.713V17c0 .69.56 1.25 1.25 1.25h.75zm5.75-7v-8.5h2.5v8.5H17z" clip-rule="evenodd"></path></svg>