<svg xmlns="http://www.w3.org/2000/svg" id="Decorative_icon" width="18.5" height="18.5" data-name="Decorative icon" viewBox="0 0 18.5 18.5"><g id="Placement_Area" fill="red" stroke="rgba(0,0,0,0)" stroke-width="1" data-name="Placement Area" opacity="0"><rect width="18" height="18" stroke="none"/><rect width="17" height="17" x=".5" y=".5" fill="none"/></g><g id="Icon"><g id="Canvas" fill="#747474" stroke="#747474" stroke-width="1" opacity="0"><rect width="18" height="18" stroke="none"/><rect width="17" height="17" x=".5" y=".5" fill="none"/></g><path id="Path_187001" fill="#747474" stroke="rgba(0,0,0,0)" stroke-width="1" d="M13.5,8A5.475,5.475,0,0,1,17,9.261V4.5a.5.5,0,0,0-.5-.5L9.334,4,7.684,2.3A1,1,0,0,0,6.964,2H2A1,1,0,0,0,1,3V14.5a.5.5,0,0,0,.5.5H8.214A5.485,5.485,0,0,1,13.5,8ZM2,3H6.964L8.908,5H2Z" data-name="Path 187001"/><path id="Path_187002" fill="#747474" stroke="rgba(0,0,0,0)" stroke-width="1" d="M13.5,9A4.5,4.5,0,1,0,18,13.5,4.5,4.5,0,0,0,13.5,9Zm2.7,5a.25.25,0,0,1-.25.25h-1.7v1.7a.25.25,0,0,1-.25.25H13a.25.25,0,0,1-.25-.25v-1.7h-1.7A.25.25,0,0,1,10.8,14V13a.25.25,0,0,1,.25-.25h1.7v-1.7A.25.25,0,0,1,13,10.8h1a.25.25,0,0,1,.25.25v1.7h1.7a.25.25,0,0,1,.25.25Z" data-name="Path 187002"/></g></svg>