<svg viewBox="0 0 1024 1024" class="css-ha8kg"><path d="M75.744 948.314c-15.62-15.62-15.62-40.948 0-56.564l816-816c15.626-15.624 40.95-15.624 56.57 0 15.624 15.62 15.626 40.946 0.004 56.57l-816 815.994c-15.62 15.62-40.95 15.62-56.572 0zM332.032 512.034c0 20.104 3.296 39.434 9.376 57.484l228.104-228.106c-18.050-6.080-37.38-9.376-57.48-9.376-99.412-0.004-180 80.588-180 179.996zM692.032 512.034c0-20.1-3.3-39.432-9.38-57.484l-228.106 228.11c18.052 6.080 37.384 9.376 57.488 9.376 99.412 0 180-80.59 180-180zM1008.716 490.522c-4.98-6.968-72.86-100.8-178.81-183.22l-57.040 57.040c11.624 8.8 23.24 18.128 34.814 27.98 53.6 45.614 94.264 92.1 116.624 119.696-22.304 27.544-62.896 73.954-116.62 119.672-46 39.14-92.56 70.064-138.384 91.904-53.872 25.676-106.786 38.694-157.266 38.694-37.448 0-76.234-7.18-115.76-21.36l-61.486 61.49c54.786 24.22 114.45 39.87 177.248 39.87 273.41 0 487.684-296.19 496.686-308.808l15.316-21.468-15.316-21.49zM216.372 631.69c-53.708-45.706-94.3-92.12-116.61-119.672 22.36-27.6 63.028-74.094 116.612-119.696 46-39.146 92.554-70.068 138.38-91.908 53.874-25.68 106.79-38.7 157.28-38.7 37.46 0 76.264 7.188 115.8 21.38l61.484-61.484c-54.796-24.236-114.474-39.896-177.286-39.896-273.446 0-487.684 296.214-496.686 308.808l-15.316 21.49 15.314 21.466c4.98 6.984 72.866 100.84 178.84 183.26l57.040-57.040c-11.64-8.806-23.264-18.144-34.854-28.008z" class="css-kqzqgg"></path></svg>