<svg xmlns="http://www.w3.org/2000/svg" xmlns:xlink="http://www.w3.org/1999/xlink" id="Layer_1" x="0" y="0" version="1.1" viewBox="0 0 18 18" style="enable-background:new 0 0 18 18" xml:space="preserve"><style type="text/css">.st0{fill:#ff13dc;fill-opacity:0}.st1{fill:#747474}</style><rect id="Canvas" width="18" height="18" class="st0"/><path d="M16.6,15.1l-3.9-3.9c2.1-2.9,1.4-6.9-1.5-8.9S4.3,0.9,2.3,3.8s-1.4,6.9,1.5,8.9c2.2,1.6,5.2,1.6,7.5,0l3.9,3.9	c0.4,0.4,1.1,0.3,1.5-0.1C16.9,16.1,16.9,15.5,16.6,15.1z M3,7.5C3,5,5,3,7.5,3S12,5,12,7.5S10,12,7.5,12S3,10,3,7.5z" class="st1"/></svg>